M48
;Layer_Color=9474304
;FILE_FORMAT=2:5
INCH,LZ
;TYPE=PLATED
T1F00S00C0.01700
T2F00S00C0.04331
T3F00S00C0.04724
%
T01
X-02135Y00665
X-0217Y00745
X-0195Y0071
X-01895Y0069
X-01765Y00675
X-014986Y0057985
X-0143Y0036
X-0142Y0031
X-01415Y0016
X-01175Y00165
X-01135Y0016
X-01095Y00115
Y0004
X-0110804Y0023946
X-0121Y002
X-00975Y0023
X-0094Y00185
X-00905Y0021
X-00875Y00235
X-0084741Y0017877
X-0078125Y0018125
X-007Y0021875
X-00712Y00256
X-00675Y00275
Y0034
X-00725
X-007625Y00425
X-008Y004375
X-008125Y005
X-0085
X-009125
X-0097Y00455
X-00975Y0034
X-009Y004
X-008625
X-007625Y005
X-006875Y0045
X-00625Y00525
X-006625Y006125
X-005375Y006014
X-0050625Y005
X-0045
X-00455Y0045
X-00456Y00331
X-0045625Y0027985
Y0020625
X-0045312Y0015625
X-00601Y00155
X-006625Y0020625
X-0099Y0015
X-0083125Y-0003125
X-008625Y007125
X-008
X-0069Y007425
X-0059Y0069
X-0045Y0068
X-00385Y0074
X-00265Y0068
X-00225Y006875
X-010375
X-01045Y0074
X-01105Y007425
X-0119065Y0072815
X-011925Y0069
X-01195Y0064941
Y0061004
X-0118Y005675
X-01145Y00525
X-0112Y00495
X-01085Y0052
X-01Y006
X0005Y00725
X00105Y00735
X0022Y0073
X002625Y006625
X0036Y00655
X0030625Y0041875
X0029375Y00275
X00195Y0019
X001125Y001625
X00106Y00293
X0013125Y00325
X00125Y003875
X0013573Y0047323
X00175Y0054
X0028Y00075
X00335Y001
X-0003125Y00125
X-0003081Y0078169
X-00135Y00775
X-00085Y0094
X-000875Y0105
X-0013125Y0111563
X-0000625Y0111875
X000875Y01125
X000625Y0121875
Y0124375
X0015
X00175
X002625Y012
Y01125
X001875Y0105
Y00875
X00055Y0095625
X0000625Y0128125
X-0011Y01385
X-0008125Y0162478
X-0056875Y017125
X-007Y017625
X-00675Y0184375
X-0085625Y0181875
X-0088125Y017375
X-0076875Y016625
X-00725Y0159375
X-0066875Y014875
X-005875Y0145
X-0046Y01415
X-00455Y01355
X-0041703Y0130625
X-0045625Y010875
X-00518Y01138
X-00565Y01136
X-0064875Y0117
X-0075Y012375
X-0078125Y01075
X-008875Y0105
X-009125Y011
X-008875Y00975
X-0081Y0095
X-0078Y008725
Y008125
X-00825Y0084
X-0087Y008125
Y008725
X-0083Y00755
X-0065Y00885
X-0055Y008875
X-0049375Y0095
X-0046875Y0079375
X-00325Y008125
X-00265Y00835
X-00275Y00975
X-003375
X-0029375Y01075
Y011375
X-006825Y00975
X-0101Y00915
X-0109Y008825
X-011625Y0088125
Y00925
Y009625
X-0116875Y01
X-0111
X-010625
X-01175Y0106875
X-0121125Y010625
X-0120625Y0113125
X-01175Y011125
X-011625Y011875
Y01225
Y012625
Y013
X-0115625Y013375
X-0116875Y01375
X-012125Y013625
Y01475
X-01185Y01515
Y01555
Y01595
X-0119Y01635
X-0120625Y0173125
X-0124375Y0175
X-0128125
X-01275Y0185
X-0142Y0169
X-01675Y0168
Y0174
X-01625Y0160625
X-0158125Y0185
X-01625Y012875
X-0164375Y0123125
X-0141Y0114588
X-0142037Y0085021
X-011875Y0084375
Y0080689
Y0076752
X-01145Y0081
X-017Y00825
X-01075Y013125
X-01025Y0131181
X-011Y0150625
X-01175Y0144
X-00886Y01486
X-0098125Y018625
X-017625Y017125
X-0188125
X-0189375Y018375
X-0185Y0146
X-0195Y0136
X-01965Y0129
X-0192Y012
X-01845
X-0176875Y0120625
X-01825Y00905
Y00865
Y00825
Y00785
Y0075
X-020875Y00755
X-0217Y00785
Y00825
Y00865
Y00905
X-02225Y0107
X-02275Y01175
X-0225Y013875
X-023375Y015125
X-023361Y015861
T02
X0045827Y0133839
X0065512
Y0153524
X0045827
T03
X-013063Y0015728
Y0169272
M30
